<?xml version="1.0" encoding="utf-8"?>
<!-- Generator: Adobe Illustrator 19.1.0, SVG Export Plug-In . SVG Version: 6.00 Build 0)  -->
<svg version="1.1" id="Layer_1" xmlns="http://www.w3.org/2000/svg" xmlns:xlink="http://www.w3.org/1999/xlink" x="0px" y="0px"
	 viewBox="0 0 298 298" style="enable-background:new 0 0 298 298;" xml:space="preserve">
<style type="text/css">
	.st0{fill:#F3776A;}
	.st1{fill:#EC5E4D;}
	.st2{fill:#FCDA18;}
	.st3{fill:#F4B51A;}
	.st4{fill:#F58220;}
	.st5{fill-rule:evenodd;clip-rule:evenodd;fill:#F58220;}
	.st6{fill-rule:evenodd;clip-rule:evenodd;fill:#FEDD15;}
</style>
<circle class="st0" cx="149" cy="149" r="149"/>
<path class="st1" d="M292.9,188.5l-92.6-91.8c0,0-94.5-15.7-111.1,94.5l97.7,101.7C238.2,279.6,278.8,239.6,292.9,188.5z"/>
<circle class="st2" cx="148" cy="146.4" r="73.5"/>
<circle class="st3" cx="148" cy="146.4" r="63.6"/>
<path class="st4" d="M92.4,149.4c0-35.1,28.5-63.6,63.6-63.6c6.3,0,12.5,0.9,18.2,2.7c-8-3.6-16.9-5.7-26.2-5.7
	c-35.1,0-63.6,28.5-63.6,63.6c0,28.8,19.1,53.1,45.4,61C107.7,197.4,92.4,175.2,92.4,149.4z"/>
<path class="st5" d="M179.4,175.4h-52.7c-1.8,0-3.3,1.5-3.3,3.3c0,1.8,1.5,3.3,3.3,3.3h52.7c1.8,0,3.3-1.5,3.3-3.3
	C182.7,176.8,181.2,175.4,179.4,175.4z"/>
<path class="st5" d="M188.3,125.9c-3.6,0-6.6,3-6.6,6.6c0,1.8,0.7,3.5,1.9,4.7l-18.4,18.4l-9.9-17.3c2-1.1,3.3-3.3,3.3-5.7
	c0-3.6-2.9-6.6-6.6-6.6c-3.6,0-6.6,3-6.6,6.6c0,2.5,1.3,4.6,3.3,5.7l-9.9,17.3l-18.4-18.4c1.2-1.2,1.9-2.8,1.9-4.7
	c0-3.6-2.9-6.6-6.6-6.6c-3.6,0-6.6,3-6.6,6.6c0,3.6,2.9,6.6,6.6,6.6c0.4,0,0.7,0,1.1-0.1l5.5,33h59.3l5.5-33
	c0.4,0.1,0.7,0.1,1.1,0.1c3.6,0,6.6-2.9,6.6-6.6C194.9,128.9,191.9,125.9,188.3,125.9z"/>
<path class="st6" d="M175.2,170.1h-52.7c-1.8,0-3.3,1.5-3.3,3.3c0,1.8,1.5,3.3,3.3,3.3h52.7c1.8,0,3.3-1.5,3.3-3.3
	C178.5,171.6,177,170.1,175.2,170.1z"/>
<path class="st6" d="M185.1,120.7c-3.6,0-6.6,3-6.6,6.6c0,1.8,0.7,3.5,1.9,4.7L162,150.3l-9.9-17.3c2-1.1,3.3-3.3,3.3-5.7
	c0-3.6-2.9-6.6-6.6-6.6c-3.6,0-6.6,3-6.6,6.6c0,2.5,1.3,4.6,3.3,5.7l-9.9,17.3l-18.4-18.4c1.2-1.2,1.9-2.8,1.9-4.7
	c0-3.6-2.9-6.6-6.6-6.6c-3.6,0-6.6,3-6.6,6.6c0,3.6,2.9,6.6,6.6,6.6c0.4,0,0.7,0,1.1-0.1l5.5,33h59.3l5.5-33
	c0.4,0.1,0.7,0.1,1.1,0.1c3.6,0,6.6-2.9,6.6-6.6C191.6,123.6,188.7,120.7,185.1,120.7z"/>
</svg>
