<?xml version="1.0" encoding="utf-8"?>
<!-- Generator: Adobe Illustrator 19.1.0, SVG Export Plug-In . SVG Version: 6.00 Build 0)  -->
<svg version="1.1" id="Layer_1" xmlns="http://www.w3.org/2000/svg" xmlns:xlink="http://www.w3.org/1999/xlink" x="0px" y="0px"
	 viewBox="-522 347.9 147 147" style="enable-background:new -522 347.9 147 147;" xml:space="preserve">
<style type="text/css">
	.st0{fill:#CFCFCF;}
	.st1{fill:#B7B7B7;}
	.st2{fill:#898989;}
	.st3{fill:#D1D1D1;}
</style>
<circle class="st0" cx="-448.5" cy="421.4" r="73.5"/>
<circle class="st1" cx="-448.5" cy="421.4" r="63.6"/>
<path class="st2" d="M-504.1,424.4c0-35.1,28.5-63.6,63.6-63.6c6.3,0,12.5,0.9,18.2,2.7c-8-3.6-16.9-5.7-26.2-5.7
	c-35.1,0-63.6,28.5-63.6,63.6c0,28.8,19.1,53.1,45.4,61C-488.8,472.4-504.1,450.2-504.1,424.4z"/>
<path class="st2" d="M-423.1,403.4c0.2-0.1,0.4-0.2,0.6-0.3c0.9-0.3,13.1,0.5,12.8-0.5c-0.8-2.7-8.7-13.3-13.6-14.4
	c-3.2-0.7-7-1-9.9,0.8c-3.2,1.9-3.3,5.3-4.1,8.6c-1.2,5.2-3.1,7.5-5.6,12.3c-2.3,4.5-15.7,15.1-18.9,16.4c-6,2.4-12.8,2.6-18.6,4.6
	c0.8-0.3-9.1,2.1-9.1,2.1s11.4,4.2,11.4,4.7s-17.4,2.8-17.4,2.8l3.1,4.5c7.1-0.1,14.2-1.9,21.4-1.8c4.5,0,10.6-0.8,15,0.6
	c3.1,1,6.3,1.4,7.6,2.4c1.3,0.9,1.3,8.7,1.4,9.6c0.1,0.9-5.1,5.1-4,5.8c1.1,0.7,22.7,0.6,22.8,0c0.1-0.6-3.8-3.8-5.5-4.5
	c-1.6-0.7-9.3-0.8-9.2-1.3c0.3-2.4,0,0.4,0.9-6.5c0.8-6.9,6.1-4.9,10.9-8.6c4.1-3.2,9.4-7.6,10.4-13.2c0.5-3.1,0.4-6.3-0.9-9.2
	c-0.7-1.6-2.4-3.4-3-5C-425.9,409.9-427.3,405.5-423.1,403.4z"/>
<path class="st3" d="M-424.9,397.8c0.2-0.1,0.4-0.2,0.6-0.3c0.9-0.3,13.1,0.5,12.8-0.5c-0.8-2.7-8.7-13.3-13.6-14.4
	c-3.2-0.7-7-1-9.9,0.8c-3.2,1.9-3.3,5.3-4.1,8.6c-1.2,5.2-3.1,7.5-5.6,12.3c-2.3,4.5-15.7,15.1-18.9,16.4c-6,2.4-12.8,2.6-18.6,4.6
	c0.8-0.3-9.1,2.1-9.1,2.1s11.4,4.2,11.4,4.7s-17.4,2.8-17.4,2.8l3.1,4.5c7.1-0.1,14.2-1.9,21.4-1.8c4.5,0,10.6-0.8,15,0.6
	c3.1,1,6.3,1.4,7.6,2.4c1.3,0.9,1.3,8.7,1.4,9.6c0.1,0.9-5.1,5.1-4,5.8c1.1,0.7,22.7,0.6,22.8,0c0.1-0.6-3.8-3.8-5.5-4.5
	c-1.6-0.7-9.3-0.8-9.2-1.3c0.3-2.4,0,0.4,0.9-6.5c0.8-6.7,6-4.8,10.8-8.5c4.1-3.2,9.4-7.6,10.4-13.2c0.5-3.1,0.4-6.3-0.9-9.2
	c-0.7-1.6-2.4-3.4-3-5C-427.7,404.3-429,399.9-424.9,397.8z"/>
</svg>
