<?xml version="1.0" encoding="utf-8"?>
<!-- Generator: Adobe Illustrator 19.1.0, SVG Export Plug-In . SVG Version: 6.00 Build 0)  -->
<svg version="1.1" id="Layer_1" xmlns="http://www.w3.org/2000/svg" xmlns:xlink="http://www.w3.org/1999/xlink" x="0px" y="0px"
	 viewBox="0 0 147 147" style="enable-background:new 0 0 147 147;" xml:space="preserve">
<style type="text/css">
	.st0{fill:#FCDA18;}
	.st1{fill:#F4B51A;}
	.st2{fill:#F58220;}
	.st3{fill-rule:evenodd;clip-rule:evenodd;fill:#F58220;}
	.st4{fill-rule:evenodd;clip-rule:evenodd;fill:#FEDD15;}
</style>
<circle class="st0" cx="73.5" cy="73.5" r="73.5"/>
<circle class="st1" cx="73.5" cy="73.5" r="63.6"/>
<path class="st2" d="M17.9,76.5c0-35.1,28.5-63.6,63.6-63.6c6.3,0,12.5,0.9,18.2,2.7c-8-3.6-16.9-5.7-26.2-5.7
	C38.4,9.9,9.9,38.4,9.9,73.5c0,28.8,19.1,53.1,45.4,61C33.2,124.5,17.9,102.3,17.9,76.5z"/>
<path class="st3" d="M102.9,103.4H50.2c-1.8,0-3.3,1.5-3.3,3.3c0,1.8,1.5,3.3,3.3,3.3h52.7c1.8,0,3.3-1.5,3.3-3.3
	C106.2,104.9,104.7,103.4,102.9,103.4z"/>
<path class="st3" d="M112.8,52c-3.6,0-6.6,3-6.6,6.6c0,1.8,0.7,3.5,1.9,4.7L89.7,81.6l-9.9-17.3c2-1.1,3.3-3.3,3.3-5.7
	c0-3.6-2.9-6.6-6.6-6.6c-3.6,0-6.6,3-6.6,6.6c0,2.5,1.3,4.6,3.3,5.7l-9.9,17.3L45,63.2c1.2-1.2,1.9-2.8,1.9-4.7
	c0-3.6-2.9-6.6-6.6-6.6c-3.6,0-6.6,3-6.6,6.6c0,3.6,2.9,6.6,6.6,6.6c0.4,0,0.7,0,1.1-0.1l5.5,33h59.3l5.5-33
	c0.4,0.1,0.7,0.1,1.1,0.1c3.6,0,6.6-2.9,6.6-6.6C119.4,55,116.4,52,112.8,52z"/>
<path class="st4" d="M99.7,98.2H47c-1.8,0-3.3,1.5-3.3,3.3c0,1.8,1.5,3.3,3.3,3.3h52.7c1.8,0,3.3-1.5,3.3-3.3
	C103,99.6,101.5,98.2,99.7,98.2z"/>
<path class="st4" d="M109.6,46.8c-3.6,0-6.6,3-6.6,6.6c0,1.8,0.7,3.5,1.9,4.7L86.5,76.4l-9.9-17.3c2-1.1,3.3-3.3,3.3-5.7
	c0-3.6-2.9-6.6-6.6-6.6c-3.6,0-6.6,3-6.6,6.6c0,2.5,1.3,4.6,3.3,5.7l-9.9,17.3L41.7,58c1.2-1.2,1.9-2.8,1.9-4.7
	c0-3.6-2.9-6.6-6.6-6.6c-3.6,0-6.6,3-6.6,6.6c0,3.6,2.9,6.6,6.6,6.6c0.4,0,0.7,0,1.1-0.1l5.5,33H103l5.5-33c0.4,0.1,0.7,0.1,1.1,0.1
	c3.6,0,6.6-2.9,6.6-6.6C116.1,49.7,113.2,46.8,109.6,46.8z"/>
</svg>
